<svg width="140" height="46" viewBox="0 0 140 46" fill="none" xmlns="http://www.w3.org/2000/svg">
<path d="M0 4C0 1.79086 1.79086 0 4 0H136C138.209 0 140 1.79086 140 4V42C140 44.2091 138.209 46 136 46H4C1.79086 46 0 44.2091 0 42V4Z" fill="#D7A2B3"/>
<path d="M51.3974 31H46.8633L52.7525 13.5455H58.369L64.2582 31H59.7241L55.6246 17.9432H55.4883L51.3974 31ZM50.7923 24.1307H60.2695V27.3352H50.7923V24.1307ZM70.0984 31.1875C69.1325 31.1875 68.2546 30.9375 67.4648 30.4375C66.6751 29.9375 66.0444 29.1875 65.5728 28.1875C65.1012 27.1875 64.8654 25.946 64.8654 24.4631C64.8654 22.9233 65.1097 21.6562 65.5984 20.6619C66.087 19.6676 66.7262 18.9318 67.516 18.4545C68.3114 17.9773 69.1665 17.7386 70.0813 17.7386C70.7688 17.7386 71.3569 17.858 71.8455 18.0966C72.3342 18.3295 72.7376 18.6307 73.0558 19C73.3739 19.3693 73.6154 19.7528 73.7802 20.1506H73.8654V13.5455H78.033V31H73.908V28.8778H73.7802C73.604 29.2812 73.354 29.6591 73.0302 30.0114C72.7063 30.3636 72.3001 30.6477 71.8114 30.8636C71.3285 31.0795 70.7575 31.1875 70.0984 31.1875ZM71.5472 27.9403C72.0529 27.9403 72.4847 27.7983 72.8427 27.5142C73.2006 27.2244 73.4762 26.8182 73.6694 26.2955C73.8626 25.7727 73.9592 25.1591 73.9592 24.4545C73.9592 23.7386 73.8626 23.1222 73.6694 22.6051C73.4819 22.0881 73.2063 21.6903 72.8427 21.4119C72.4847 21.1335 72.0529 20.9943 71.5472 20.9943C71.0302 20.9943 70.5927 21.1364 70.2347 21.4205C69.8768 21.7045 69.604 22.1051 69.4165 22.6222C69.2347 23.1392 69.1438 23.75 69.1438 24.4545C69.1438 25.1591 69.2376 25.7727 69.4251 26.2955C69.6126 26.8182 69.8825 27.2244 70.2347 27.5142C70.5927 27.7983 71.0302 27.9403 71.5472 27.9403ZM85.4499 31.1875C84.484 31.1875 83.6062 30.9375 82.8164 30.4375C82.0266 29.9375 81.396 29.1875 80.9244 28.1875C80.4528 27.1875 80.217 25.946 80.217 24.4631C80.217 22.9233 80.4613 21.6562 80.9499 20.6619C81.4386 19.6676 82.0778 18.9318 82.8675 18.4545C83.663 17.9773 84.5181 17.7386 85.4329 17.7386C86.1204 17.7386 86.7085 17.858 87.1971 18.0966C87.6857 18.3295 88.0891 18.6307 88.4073 19C88.7255 19.3693 88.967 19.7528 89.1317 20.1506H89.217V13.5455H93.3846V31H89.2596V28.8778H89.1317C88.9556 29.2812 88.7056 29.6591 88.3817 30.0114C88.0579 30.3636 87.6516 30.6477 87.163 30.8636C86.68 31.0795 86.109 31.1875 85.4499 31.1875ZM86.8988 27.9403C87.4045 27.9403 87.8363 27.7983 88.1942 27.5142C88.5522 27.2244 88.8278 26.8182 89.021 26.2955C89.2141 25.7727 89.3107 25.1591 89.3107 24.4545C89.3107 23.7386 89.2141 23.1222 89.021 22.6051C88.8335 22.0881 88.5579 21.6903 88.1942 21.4119C87.8363 21.1335 87.4045 20.9943 86.8988 20.9943C86.3817 20.9943 85.9442 21.1364 85.5863 21.4205C85.2283 21.7045 84.9556 22.1051 84.7681 22.6222C84.5863 23.1392 84.4954 23.75 84.4954 24.4545C84.4954 25.1591 84.5891 25.7727 84.7766 26.2955C84.9641 26.8182 85.234 27.2244 85.5863 27.5142C85.9442 27.7983 86.3817 27.9403 86.8988 27.9403Z" fill="white"/>
</svg>
