<svg width="430" height="46" viewBox="0 0 430 46" fill="none" xmlns="http://www.w3.org/2000/svg">
<path d="M4 0.5L426 0.5C427.933 0.5 429.5 2.067 429.5 4V42C429.5 43.933 427.933 45.5 426 45.5H4C2.067 45.5 0.5 43.933 0.5 42L0.5 4C0.5 2.067 2.067 0.5 4 0.5Z" stroke="#74A6B1"/>
<path d="M41.941 31V13.5455H44.5745V28.733H52.4836V31H41.941ZM60.9254 31.2642C59.6356 31.2642 58.5248 30.9886 57.593 30.4375C56.6668 29.8807 55.9509 29.0994 55.4453 28.0938C54.9453 27.0824 54.6953 25.8977 54.6953 24.5398C54.6953 23.1989 54.9453 22.017 55.4453 20.9943C55.9509 19.9716 56.6555 19.1733 57.5589 18.5994C58.468 18.0256 59.5305 17.7386 60.7464 17.7386C61.485 17.7386 62.2009 17.8608 62.8941 18.1051C63.5873 18.3494 64.2095 18.733 64.7606 19.2557C65.3117 19.7784 65.7464 20.4574 66.0646 21.2926C66.3828 22.1222 66.5418 23.1307 66.5418 24.3182V25.2216H56.1356V23.3125H64.0447C64.0447 22.642 63.9083 22.0483 63.6356 21.5312C63.3629 21.0085 62.9793 20.5966 62.485 20.2955C61.9964 19.9943 61.4225 19.8438 60.7634 19.8438C60.0475 19.8438 59.4225 20.0199 58.8884 20.3722C58.36 20.7187 57.9509 21.1733 57.6612 21.7358C57.3771 22.2926 57.235 22.8977 57.235 23.5511V25.0426C57.235 25.9176 57.3884 26.6619 57.6953 27.2756C58.0078 27.8892 58.4424 28.358 58.9992 28.6818C59.556 29 60.2066 29.1591 60.9509 29.1591C61.4339 29.1591 61.8742 29.0909 62.272 28.9545C62.6697 28.8125 63.0134 28.6023 63.3032 28.3239C63.593 28.0455 63.8146 27.7017 63.968 27.2926L66.3799 27.7273C66.1867 28.4375 65.8401 29.0597 65.3401 29.5938C64.8458 30.1222 64.2237 30.5341 63.4737 30.8295C62.7293 31.1193 61.8799 31.2642 60.9254 31.2642ZM73.1789 31.2898C72.3494 31.2898 71.5994 31.1364 70.9289 30.8295C70.2585 30.517 69.7272 30.0653 69.3352 29.4744C68.9488 28.8835 68.7556 28.1591 68.7556 27.3011C68.7556 26.5625 68.8977 25.9545 69.1818 25.4773C69.4658 25 69.8494 24.6222 70.3323 24.3438C70.8153 24.0653 71.3551 23.8551 71.9516 23.7131C72.5482 23.571 73.1562 23.4631 73.7755 23.3892C74.5596 23.2983 75.196 23.2244 75.6846 23.1676C76.1732 23.1051 76.5283 23.0057 76.7499 22.8693C76.9715 22.733 77.0823 22.5114 77.0823 22.2045V22.1449C77.0823 21.4006 76.8721 20.8239 76.4516 20.4148C76.0369 20.0057 75.4176 19.8011 74.5937 19.8011C73.7357 19.8011 73.0596 19.9915 72.5653 20.3722C72.0766 20.7472 71.7386 21.1648 71.5511 21.625L69.1562 21.0795C69.4403 20.2841 69.8551 19.642 70.4005 19.1534C70.9516 18.6591 71.5852 18.3011 72.3011 18.0795C73.017 17.8523 73.7698 17.7386 74.5596 17.7386C75.0823 17.7386 75.6363 17.8011 76.2215 17.9261C76.8124 18.0455 77.3636 18.267 77.8749 18.5909C78.392 18.9148 78.8153 19.3778 79.1448 19.9801C79.4744 20.5767 79.6391 21.3523 79.6391 22.3068V31H77.1505V29.2102H77.0482C76.8835 29.5398 76.6363 29.8636 76.3068 30.1818C75.9772 30.5 75.5539 30.7642 75.0369 30.9744C74.5198 31.1847 73.9005 31.2898 73.1789 31.2898ZM73.7329 29.2443C74.4374 29.2443 75.0397 29.1051 75.5397 28.8267C76.0454 28.5483 76.4289 28.1847 76.6903 27.7358C76.9573 27.2812 77.0908 26.7955 77.0908 26.2784V24.5909C76.9999 24.6818 76.8238 24.767 76.5624 24.8466C76.3068 24.9205 76.0141 24.9858 75.6846 25.0426C75.3551 25.0937 75.034 25.142 74.7215 25.1875C74.409 25.2273 74.1477 25.2614 73.9374 25.2898C73.4431 25.3523 72.9914 25.4574 72.5823 25.6051C72.1789 25.7528 71.8551 25.9659 71.6107 26.2443C71.3721 26.517 71.2528 26.8807 71.2528 27.3352C71.2528 27.9659 71.4857 28.4432 71.9516 28.767C72.4176 29.0852 73.0113 29.2443 73.7329 29.2443ZM83.0333 31V17.9091H85.4964V19.9886H85.6328C85.8714 19.2841 86.2918 18.7301 86.8941 18.3267C87.5021 17.9176 88.1896 17.7131 88.9566 17.7131C89.1157 17.7131 89.3032 17.7187 89.5191 17.7301C89.7407 17.7415 89.914 17.7557 90.039 17.7727V20.2102C89.9367 20.1818 89.7549 20.1506 89.4935 20.1165C89.2322 20.0767 88.9708 20.0568 88.7095 20.0568C88.1072 20.0568 87.5703 20.1847 87.0987 20.4403C86.6328 20.6903 86.2634 21.0398 85.9907 21.4886C85.718 21.9318 85.5816 22.4375 85.5816 23.0057V31H83.0333ZM94.7926 23.2273V31H92.2443V17.9091H94.6903V20.0398H94.8522C95.1533 19.3466 95.6249 18.7898 96.267 18.3693C96.9147 17.9489 97.7301 17.7386 98.713 17.7386C99.6051 17.7386 100.386 17.9261 101.057 18.3011C101.727 18.6705 102.247 19.2216 102.616 19.9545C102.986 20.6875 103.17 21.5937 103.17 22.6733V31H100.622V22.9801C100.622 22.0312 100.375 21.2898 99.8806 20.7557C99.3863 20.2159 98.7073 19.946 97.8437 19.946C97.2528 19.946 96.7272 20.0739 96.267 20.3295C95.8124 20.5852 95.4516 20.9602 95.1846 21.4545C94.9232 21.9432 94.7926 22.5341 94.7926 23.2273ZM115.778 31L111.925 17.9091H114.559L117.124 27.5227H117.252L119.826 17.9091H122.459L125.016 27.4801H125.144L127.692 17.9091H130.326L126.482 31H123.883L121.224 21.5483H121.028L118.369 31H115.778ZM135.293 23.2273V31H132.744V13.5455H135.258V20.0398H135.42C135.727 19.3352 136.196 18.7756 136.827 18.3608C137.457 17.946 138.281 17.7386 139.298 17.7386C140.196 17.7386 140.98 17.9233 141.651 18.2926C142.327 18.6619 142.849 19.2131 143.219 19.946C143.594 20.6733 143.781 21.5824 143.781 22.6733V31H141.233V22.9801C141.233 22.0199 140.986 21.2756 140.491 20.7472C139.997 20.2131 139.31 19.946 138.429 19.946C137.827 19.946 137.287 20.0739 136.81 20.3295C136.338 20.5852 135.966 20.9602 135.693 21.4545C135.426 21.9432 135.293 22.5341 135.293 23.2273ZM148.324 35.9091C147.943 35.9091 147.597 35.8778 147.284 35.8153C146.972 35.7585 146.739 35.696 146.585 35.6278L147.199 33.5398C147.665 33.6648 148.079 33.7188 148.443 33.7017C148.807 33.6847 149.128 33.5483 149.406 33.2926C149.69 33.0369 149.94 32.6193 150.156 32.0398L150.472 31.1705L145.682 17.9091H148.409L151.724 28.0682H151.861L155.176 17.9091H157.912L152.517 32.7472C152.267 33.429 151.949 34.0057 151.562 34.4773C151.176 34.9545 150.716 35.3125 150.182 35.5511C149.648 35.7898 149.028 35.9091 148.324 35.9091ZM172.769 17.9091V19.9545H165.619V17.9091H172.769ZM167.536 14.7727H170.084V27.1562C170.084 27.6506 170.158 28.0227 170.306 28.2727C170.454 28.517 170.644 28.6847 170.877 28.7756C171.116 28.8608 171.374 28.9034 171.653 28.9034C171.857 28.9034 172.036 28.8892 172.19 28.8608C172.343 28.8324 172.462 28.8097 172.548 28.7926L173.008 30.8977C172.86 30.9545 172.65 31.0114 172.377 31.0682C172.104 31.1307 171.763 31.1648 171.354 31.1705C170.684 31.1818 170.059 31.0625 169.479 30.8125C168.9 30.5625 168.431 30.1761 168.073 29.6534C167.715 29.1307 167.536 28.4744 167.536 27.6847V14.7727ZM180.962 31.2642C179.734 31.2642 178.663 30.983 177.749 30.4205C176.834 29.858 176.124 29.071 175.618 28.0597C175.112 27.0483 174.859 25.8665 174.859 24.5142C174.859 23.1562 175.112 21.9687 175.618 20.9517C176.124 19.9347 176.834 19.1449 177.749 18.5824C178.663 18.0199 179.734 17.7386 180.962 17.7386C182.189 17.7386 183.26 18.0199 184.175 18.5824C185.089 19.1449 185.8 19.9347 186.305 20.9517C186.811 21.9687 187.064 23.1562 187.064 24.5142C187.064 25.8665 186.811 27.0483 186.305 28.0597C185.8 29.071 185.089 29.858 184.175 30.4205C183.26 30.983 182.189 31.2642 180.962 31.2642ZM180.97 29.125C181.766 29.125 182.425 28.9148 182.947 28.4943C183.47 28.0739 183.856 27.5142 184.106 26.8153C184.362 26.1165 184.49 25.3466 184.49 24.5057C184.49 23.6705 184.362 22.9034 184.106 22.2045C183.856 21.5 183.47 20.9347 182.947 20.5085C182.425 20.0824 181.766 19.8693 180.97 19.8693C180.169 19.8693 179.504 20.0824 178.976 20.5085C178.453 20.9347 178.064 21.5 177.808 22.2045C177.558 22.9034 177.433 23.6705 177.433 24.5057C177.433 25.3466 177.558 26.1165 177.808 26.8153C178.064 27.5142 178.453 28.0739 178.976 28.4943C179.504 28.9148 180.169 29.125 180.97 29.125ZM197.621 22.5199V24.7273H189.883V22.5199H197.621ZM205.918 31.2557C204.861 31.2557 203.918 30.9858 203.089 30.446C202.265 29.9006 201.617 29.125 201.146 28.1193C200.68 27.108 200.447 25.8949 200.447 24.4801C200.447 23.0653 200.682 21.8551 201.154 20.8494C201.631 19.8437 202.285 19.0739 203.114 18.5398C203.944 18.0057 204.884 17.7386 205.935 17.7386C206.748 17.7386 207.401 17.875 207.896 18.1477C208.396 18.4148 208.782 18.7273 209.055 19.0852C209.333 19.4432 209.549 19.7585 209.702 20.0312H209.856V13.5455H212.404V31H209.915V28.9631H209.702C209.549 29.2415 209.327 29.5597 209.038 29.9176C208.753 30.2756 208.361 30.5881 207.861 30.8551C207.361 31.1222 206.714 31.2557 205.918 31.2557ZM206.481 29.0824C207.214 29.0824 207.833 28.8892 208.339 28.5028C208.85 28.1108 209.236 27.5682 209.498 26.875C209.765 26.1818 209.898 25.375 209.898 24.4545C209.898 23.5455 209.768 22.75 209.506 22.0682C209.245 21.3864 208.861 20.8551 208.356 20.4744C207.85 20.0937 207.225 19.9034 206.481 19.9034C205.714 19.9034 205.075 20.1023 204.563 20.5C204.052 20.8977 203.665 21.4403 203.404 22.1278C203.148 22.8153 203.021 23.5909 203.021 24.4545C203.021 25.3295 203.151 26.1165 203.413 26.8153C203.674 27.5142 204.06 28.0682 204.572 28.4773C205.089 28.8807 205.725 29.0824 206.481 29.0824ZM221.555 31.2642C220.328 31.2642 219.257 30.983 218.342 30.4205C217.427 29.858 216.717 29.071 216.212 28.0597C215.706 27.0483 215.453 25.8665 215.453 24.5142C215.453 23.1562 215.706 21.9687 216.212 20.9517C216.717 19.9347 217.427 19.1449 218.342 18.5824C219.257 18.0199 220.328 17.7386 221.555 17.7386C222.783 17.7386 223.854 18.0199 224.768 18.5824C225.683 19.1449 226.393 19.9347 226.899 20.9517C227.405 21.9687 227.658 23.1562 227.658 24.5142C227.658 25.8665 227.405 27.0483 226.899 28.0597C226.393 29.071 225.683 29.858 224.768 30.4205C223.854 30.983 222.783 31.2642 221.555 31.2642ZM221.564 29.125C222.359 29.125 223.018 28.9148 223.541 28.4943C224.064 28.0739 224.45 27.5142 224.7 26.8153C224.956 26.1165 225.084 25.3466 225.084 24.5057C225.084 23.6705 224.956 22.9034 224.7 22.2045C224.45 21.5 224.064 20.9347 223.541 20.5085C223.018 20.0824 222.359 19.8693 221.564 19.8693C220.763 19.8693 220.098 20.0824 219.57 20.5085C219.047 20.9347 218.658 21.5 218.402 22.2045C218.152 22.9034 218.027 23.6705 218.027 24.5057C218.027 25.3466 218.152 26.1165 218.402 26.8153C218.658 27.5142 219.047 28.0739 219.57 28.4943C220.098 28.9148 220.763 29.125 221.564 29.125ZM239.402 13.5455V31H236.854V13.5455H239.402ZM242.83 31V17.9091H245.378V31H242.83ZM244.117 15.8892C243.674 15.8892 243.293 15.7415 242.975 15.446C242.663 15.1449 242.506 14.7869 242.506 14.3722C242.506 13.9517 242.663 13.5937 242.975 13.2983C243.293 12.9972 243.674 12.8466 244.117 12.8466C244.56 12.8466 244.938 12.9972 245.251 13.2983C245.569 13.5937 245.728 13.9517 245.728 14.3722C245.728 14.7869 245.569 15.1449 245.251 15.446C244.938 15.7415 244.56 15.8892 244.117 15.8892ZM258.616 21.1051L256.307 21.5142C256.21 21.2187 256.057 20.9375 255.847 20.6705C255.642 20.4034 255.364 20.1847 255.011 20.0142C254.659 19.8437 254.219 19.7585 253.69 19.7585C252.969 19.7585 252.366 19.9205 251.883 20.2443C251.401 20.5625 251.159 20.9744 251.159 21.4801C251.159 21.9176 251.321 22.2699 251.645 22.5369C251.969 22.804 252.491 23.0227 253.213 23.1932L255.293 23.6705C256.497 23.9489 257.395 24.3778 257.986 24.9574C258.577 25.5369 258.872 26.2898 258.872 27.2159C258.872 28 258.645 28.6989 258.19 29.3125C257.741 29.9205 257.114 30.3977 256.307 30.7443C255.506 31.0909 254.577 31.2642 253.52 31.2642C252.054 31.2642 250.858 30.9517 249.932 30.3267C249.006 29.696 248.437 28.8011 248.227 27.642L250.69 27.267C250.844 27.9091 251.159 28.3949 251.636 28.7244C252.114 29.0483 252.736 29.2102 253.503 29.2102C254.338 29.2102 255.006 29.0369 255.506 28.6903C256.006 28.3381 256.256 27.9091 256.256 27.4034C256.256 26.9943 256.102 26.6506 255.795 26.3722C255.494 26.0937 255.031 25.8835 254.406 25.7415L252.19 25.2557C250.969 24.9773 250.065 24.5341 249.48 23.9261C248.901 23.3182 248.611 22.5483 248.611 21.6165C248.611 20.8437 248.827 20.1676 249.258 19.5881C249.69 19.0085 250.287 18.5568 251.048 18.233C251.81 17.9034 252.682 17.7386 253.665 17.7386C255.079 17.7386 256.193 18.0455 257.006 18.6591C257.818 19.267 258.355 20.0824 258.616 21.1051ZM267.785 17.9091V19.9545H260.634V17.9091H267.785ZM262.552 14.7727H265.1V27.1562C265.1 27.6506 265.174 28.0227 265.322 28.2727C265.469 28.517 265.66 28.6847 265.893 28.7756C266.131 28.8608 266.39 28.9034 266.668 28.9034C266.873 28.9034 267.052 28.8892 267.205 28.8608C267.359 28.8324 267.478 28.8097 267.563 28.7926L268.023 30.8977C267.876 30.9545 267.665 31.0114 267.393 31.0682C267.12 31.1307 266.779 31.1648 266.37 31.1705C265.7 31.1818 265.075 31.0625 264.495 30.8125C263.915 30.5625 263.447 30.1761 263.089 29.6534C262.731 29.1307 262.552 28.4744 262.552 27.6847V14.7727ZM280.202 21.1051L277.893 21.5142C277.796 21.2187 277.643 20.9375 277.432 20.6705C277.228 20.4034 276.95 20.1847 276.597 20.0142C276.245 19.8437 275.805 19.7585 275.276 19.7585C274.555 19.7585 273.952 19.9205 273.469 20.2443C272.986 20.5625 272.745 20.9744 272.745 21.4801C272.745 21.9176 272.907 22.2699 273.231 22.5369C273.555 22.804 274.077 23.0227 274.799 23.1932L276.878 23.6705C278.083 23.9489 278.981 24.3778 279.572 24.9574C280.163 25.5369 280.458 26.2898 280.458 27.2159C280.458 28 280.231 28.6989 279.776 29.3125C279.327 29.9205 278.7 30.3977 277.893 30.7443C277.092 31.0909 276.163 31.2642 275.106 31.2642C273.64 31.2642 272.444 30.9517 271.518 30.3267C270.592 29.696 270.023 28.8011 269.813 27.642L272.276 27.267C272.43 27.9091 272.745 28.3949 273.222 28.7244C273.7 29.0483 274.322 29.2102 275.089 29.2102C275.924 29.2102 276.592 29.0369 277.092 28.6903C277.592 28.3381 277.842 27.9091 277.842 27.4034C277.842 26.9943 277.688 26.6506 277.381 26.3722C277.08 26.0937 276.617 25.8835 275.992 25.7415L273.776 25.2557C272.555 24.9773 271.651 24.5341 271.066 23.9261C270.486 23.3182 270.197 22.5483 270.197 21.6165C270.197 20.8437 270.413 20.1676 270.844 19.5881C271.276 19.0085 271.873 18.5568 272.634 18.233C273.396 17.9034 274.268 17.7386 275.251 17.7386C276.665 17.7386 277.779 18.0455 278.592 18.6591C279.404 19.267 279.941 20.0824 280.202 21.1051ZM293.421 31.2898C292.592 31.2898 291.842 31.1364 291.171 30.8295C290.501 30.517 289.969 30.0653 289.577 29.4744C289.191 28.8835 288.998 28.1591 288.998 27.3011C288.998 26.5625 289.14 25.9545 289.424 25.4773C289.708 25 290.092 24.6222 290.575 24.3438C291.057 24.0653 291.597 23.8551 292.194 23.7131C292.79 23.571 293.398 23.4631 294.018 23.3892C294.802 23.2983 295.438 23.2244 295.927 23.1676C296.415 23.1051 296.771 23.0057 296.992 22.8693C297.214 22.733 297.325 22.5114 297.325 22.2045V22.1449C297.325 21.4006 297.114 20.8239 296.694 20.4148C296.279 20.0057 295.66 19.8011 294.836 19.8011C293.978 19.8011 293.302 19.9915 292.807 20.3722C292.319 20.7472 291.981 21.1648 291.793 21.625L289.398 21.0795C289.682 20.2841 290.097 19.642 290.643 19.1534C291.194 18.6591 291.827 18.3011 292.543 18.0795C293.259 17.8523 294.012 17.7386 294.802 17.7386C295.325 17.7386 295.878 17.8011 296.464 17.9261C297.055 18.0455 297.606 18.267 298.117 18.5909C298.634 18.9148 299.057 19.3778 299.387 19.9801C299.717 20.5767 299.881 21.3523 299.881 22.3068V31H297.393V29.2102H297.29C297.126 29.5398 296.878 29.8636 296.549 30.1818C296.219 30.5 295.796 30.7642 295.279 30.9744C294.762 31.1847 294.143 31.2898 293.421 31.2898ZM293.975 29.2443C294.68 29.2443 295.282 29.1051 295.782 28.8267C296.288 28.5483 296.671 28.1847 296.932 27.7358C297.2 27.2812 297.333 26.7955 297.333 26.2784V24.5909C297.242 24.6818 297.066 24.767 296.805 24.8466C296.549 24.9205 296.256 24.9858 295.927 25.0426C295.597 25.0937 295.276 25.142 294.964 25.1875C294.651 25.2273 294.39 25.2614 294.18 25.2898C293.685 25.3523 293.234 25.4574 292.825 25.6051C292.421 25.7528 292.097 25.9659 291.853 26.2443C291.614 26.517 291.495 26.8807 291.495 27.3352C291.495 27.9659 291.728 28.4432 292.194 28.767C292.66 29.0852 293.253 29.2443 293.975 29.2443ZM303.276 31V17.9091H305.739V19.9886H305.875C306.114 19.2841 306.534 18.7301 307.136 18.3267C307.744 17.9176 308.432 17.7131 309.199 17.7131C309.358 17.7131 309.545 17.7187 309.761 17.7301C309.983 17.7415 310.156 17.7557 310.281 17.7727V20.2102C310.179 20.1818 309.997 20.1506 309.736 20.1165C309.474 20.0767 309.213 20.0568 308.952 20.0568C308.349 20.0568 307.812 20.1847 307.341 20.4403C306.875 20.6903 306.506 21.0398 306.233 21.4886C305.96 21.9318 305.824 22.4375 305.824 23.0057V31H303.276ZM317.66 31.2642C316.37 31.2642 315.259 30.9886 314.327 30.4375C313.401 29.8807 312.685 29.0994 312.18 28.0938C311.68 27.0824 311.43 25.8977 311.43 24.5398C311.43 23.1989 311.68 22.017 312.18 20.9943C312.685 19.9716 313.39 19.1733 314.293 18.5994C315.202 18.0256 316.265 17.7386 317.481 17.7386C318.219 17.7386 318.935 17.8608 319.628 18.1051C320.322 18.3494 320.944 18.733 321.495 19.2557C322.046 19.7784 322.481 20.4574 322.799 21.2926C323.117 22.1222 323.276 23.1307 323.276 24.3182V25.2216H312.87V23.3125H320.779C320.779 22.642 320.643 22.0483 320.37 21.5312C320.097 21.0085 319.714 20.5966 319.219 20.2955C318.731 19.9943 318.157 19.8438 317.498 19.8438C316.782 19.8438 316.157 20.0199 315.623 20.3722C315.094 20.7187 314.685 21.1733 314.396 21.7358C314.111 22.2926 313.969 22.8977 313.969 23.5511V25.0426C313.969 25.9176 314.123 26.6619 314.43 27.2756C314.742 27.8892 315.177 28.358 315.734 28.6818C316.29 29 316.941 29.1591 317.685 29.1591C318.168 29.1591 318.609 29.0909 319.006 28.9545C319.404 28.8125 319.748 28.6023 320.038 28.3239C320.327 28.0455 320.549 27.7017 320.702 27.2926L323.114 27.7273C322.921 28.4375 322.575 29.0597 322.075 29.5938C321.58 30.1222 320.958 30.5341 320.208 30.8295C319.464 31.1193 318.614 31.2642 317.66 31.2642ZM337.944 36.1818C336.904 36.1818 336.009 36.0455 335.259 35.7727C334.515 35.5 333.907 35.1392 333.435 34.6903C332.964 34.2415 332.611 33.75 332.378 33.2159L334.569 32.3125C334.722 32.5625 334.927 32.8267 335.182 33.1051C335.444 33.3892 335.796 33.6307 336.239 33.8295C336.688 34.0284 337.265 34.1278 337.969 34.1278C338.935 34.1278 339.734 33.892 340.364 33.4205C340.995 32.9545 341.31 32.2102 341.31 31.1875V28.6136H341.148C340.995 28.892 340.773 29.2017 340.484 29.5426C340.2 29.8835 339.807 30.179 339.307 30.429C338.807 30.679 338.157 30.804 337.356 30.804C336.322 30.804 335.39 30.5625 334.56 30.0795C333.736 29.5909 333.083 28.8722 332.6 27.9233C332.123 26.9687 331.884 25.7955 331.884 24.4034C331.884 23.0114 332.12 21.8182 332.592 20.8239C333.069 19.8295 333.722 19.0682 334.552 18.5398C335.381 18.0057 336.322 17.7386 337.373 17.7386C338.185 17.7386 338.842 17.875 339.342 18.1477C339.842 18.4148 340.231 18.7273 340.509 19.0852C340.793 19.4432 341.012 19.7585 341.165 20.0312H341.353V17.9091H343.85V31.2898C343.85 32.4148 343.589 33.3381 343.066 34.0597C342.543 34.7813 341.836 35.3153 340.944 35.6619C340.057 36.0085 339.057 36.1818 337.944 36.1818ZM337.918 28.6903C338.651 28.6903 339.271 28.5199 339.776 28.179C340.288 27.8324 340.674 27.3381 340.935 26.696C341.202 26.0483 341.336 25.2727 341.336 24.3693C341.336 23.4886 341.205 22.7131 340.944 22.0426C340.682 21.3722 340.299 20.8494 339.793 20.4744C339.288 20.0937 338.663 19.9034 337.918 19.9034C337.151 19.9034 336.512 20.1023 336.001 20.5C335.489 20.892 335.103 21.4261 334.842 22.1023C334.586 22.7784 334.458 23.5341 334.458 24.3693C334.458 25.2273 334.589 25.9801 334.85 26.6278C335.111 27.2756 335.498 27.7812 336.009 28.1449C336.526 28.5085 337.163 28.6903 337.918 28.6903ZM347.268 31V17.9091H349.731V19.9886H349.867C350.106 19.2841 350.526 18.7301 351.128 18.3267C351.736 17.9176 352.424 17.7131 353.191 17.7131C353.35 17.7131 353.538 17.7187 353.753 17.7301C353.975 17.7415 354.148 17.7557 354.273 17.7727V20.2102C354.171 20.1818 353.989 20.1506 353.728 20.1165C353.467 20.0767 353.205 20.0568 352.944 20.0568C352.342 20.0568 351.805 20.1847 351.333 20.4403C350.867 20.6903 350.498 21.0398 350.225 21.4886C349.952 21.9318 349.816 22.4375 349.816 23.0057V31H347.268ZM361.652 31.2642C360.362 31.2642 359.251 30.9886 358.32 30.4375C357.393 29.8807 356.677 29.0994 356.172 28.0938C355.672 27.0824 355.422 25.8977 355.422 24.5398C355.422 23.1989 355.672 22.017 356.172 20.9943C356.677 19.9716 357.382 19.1733 358.285 18.5994C359.195 18.0256 360.257 17.7386 361.473 17.7386C362.212 17.7386 362.927 17.8608 363.621 18.1051C364.314 18.3494 364.936 18.733 365.487 19.2557C366.038 19.7784 366.473 20.4574 366.791 21.2926C367.109 22.1222 367.268 23.1307 367.268 24.3182V25.2216H356.862V23.3125H364.771C364.771 22.642 364.635 22.0483 364.362 21.5312C364.089 21.0085 363.706 20.5966 363.212 20.2955C362.723 19.9943 362.149 19.8438 361.49 19.8438C360.774 19.8438 360.149 20.0199 359.615 20.3722C359.087 20.7187 358.677 21.1733 358.388 21.7358C358.104 22.2926 357.962 22.8977 357.962 23.5511V25.0426C357.962 25.9176 358.115 26.6619 358.422 27.2756C358.734 27.8892 359.169 28.358 359.726 28.6818C360.283 29 360.933 29.1591 361.677 29.1591C362.16 29.1591 362.601 29.0909 362.999 28.9545C363.396 28.8125 363.74 28.6023 364.03 28.3239C364.32 28.0455 364.541 27.7017 364.695 27.2926L367.106 27.7273C366.913 28.4375 366.567 29.0597 366.067 29.5938C365.572 30.1222 364.95 30.5341 364.2 30.8295C363.456 31.1193 362.606 31.2642 361.652 31.2642ZM373.905 31.2898C373.076 31.2898 372.326 31.1364 371.655 30.8295C370.985 30.517 370.454 30.0653 370.062 29.4744C369.675 28.8835 369.482 28.1591 369.482 27.3011C369.482 26.5625 369.624 25.9545 369.908 25.4773C370.192 25 370.576 24.6222 371.059 24.3438C371.542 24.0653 372.082 23.8551 372.678 23.7131C373.275 23.571 373.883 23.4631 374.502 23.3892C375.286 23.2983 375.923 23.2244 376.411 23.1676C376.9 23.1051 377.255 23.0057 377.477 22.8693C377.698 22.733 377.809 22.5114 377.809 22.2045V22.1449C377.809 21.4006 377.599 20.8239 377.178 20.4148C376.763 20.0057 376.144 19.8011 375.32 19.8011C374.462 19.8011 373.786 19.9915 373.292 20.3722C372.803 20.7472 372.465 21.1648 372.278 21.625L369.883 21.0795C370.167 20.2841 370.582 19.642 371.127 19.1534C371.678 18.6591 372.312 18.3011 373.028 18.0795C373.744 17.8523 374.496 17.7386 375.286 17.7386C375.809 17.7386 376.363 17.8011 376.948 17.9261C377.539 18.0455 378.09 18.267 378.602 18.5909C379.119 18.9148 379.542 19.3778 379.871 19.9801C380.201 20.5767 380.366 21.3523 380.366 22.3068V31H377.877V29.2102H377.775C377.61 29.5398 377.363 29.8636 377.033 30.1818C376.704 30.5 376.28 30.7642 375.763 30.9744C375.246 31.1847 374.627 31.2898 373.905 31.2898ZM374.459 29.2443C375.164 29.2443 375.766 29.1051 376.266 28.8267C376.772 28.5483 377.155 28.1847 377.417 27.7358C377.684 27.2812 377.817 26.7955 377.817 26.2784V24.5909C377.727 24.6818 377.55 24.767 377.289 24.8466C377.033 24.9205 376.741 24.9858 376.411 25.0426C376.082 25.0937 375.761 25.142 375.448 25.1875C375.136 25.2273 374.874 25.2614 374.664 25.2898C374.17 25.3523 373.718 25.4574 373.309 25.6051C372.905 25.7528 372.582 25.9659 372.337 26.2443C372.099 26.517 371.979 26.8807 371.979 27.3352C371.979 27.9659 372.212 28.4432 372.678 28.767C373.144 29.0852 373.738 29.2443 374.459 29.2443ZM389.871 17.9091V19.9545H382.72V17.9091H389.871ZM384.638 14.7727H387.186V27.1562C387.186 27.6506 387.26 28.0227 387.408 28.2727C387.555 28.517 387.746 28.6847 387.979 28.7756C388.217 28.8608 388.476 28.9034 388.754 28.9034C388.959 28.9034 389.138 28.8892 389.291 28.8608C389.445 28.8324 389.564 28.8097 389.649 28.7926L390.109 30.8977C389.962 30.9545 389.751 31.0114 389.479 31.0682C389.206 31.1307 388.865 31.1648 388.456 31.1705C387.785 31.1818 387.16 31.0625 386.581 30.8125C386.001 30.5625 385.533 30.1761 385.175 29.6534C384.817 29.1307 384.638 28.4744 384.638 27.6847V14.7727Z" fill="#74A6B1"/>
</svg>
