<svg width="430" height="46" viewBox="0 0 430 46" fill="none" xmlns="http://www.w3.org/2000/svg">
<path d="M0 4C0 1.79086 1.79086 0 4 0L426 0C428.209 0 430 1.79086 430 4V42C430 44.2091 428.209 46 426 46H4C1.79086 46 0 44.2091 0 42L0 4Z" fill="#D7A2B3"/>
<path d="M129.781 16.9716V13.5455H144.534V16.9716H139.241V31H135.082V16.9716H129.781ZM145.235 31V17.9091H149.283V20.2955H149.42C149.658 19.4318 150.048 18.7898 150.587 18.3693C151.127 17.9432 151.755 17.7301 152.471 17.7301C152.664 17.7301 152.863 17.7443 153.067 17.7727C153.272 17.7955 153.462 17.8324 153.638 17.8835V21.5057C153.44 21.4375 153.178 21.3835 152.854 21.3438C152.536 21.304 152.252 21.2841 152.002 21.2841C151.508 21.2841 151.062 21.3949 150.664 21.6165C150.272 21.8324 149.962 22.1364 149.735 22.5284C149.513 22.9148 149.403 23.3693 149.403 23.892V31H145.235ZM158.283 35.9091C157.783 35.9091 157.312 35.8693 156.869 35.7898C156.425 35.7159 156.045 35.6165 155.727 35.4915L156.647 32.4659C157.056 32.6023 157.425 32.6818 157.755 32.7045C158.09 32.7273 158.377 32.6733 158.616 32.5426C158.86 32.4176 159.048 32.1932 159.178 31.8693L159.34 31.4773L154.687 17.9091H159.05L161.462 27.25H161.599L164.045 17.9091H168.434L163.499 32.2528C163.261 32.9688 162.923 33.5994 162.485 34.1449C162.053 34.696 161.494 35.1278 160.806 35.4403C160.124 35.7528 159.283 35.9091 158.283 35.9091ZM178.878 31.2216C178.043 31.2216 177.302 31.0824 176.654 30.804C176.012 30.5199 175.503 30.0937 175.128 29.5256C174.759 28.9517 174.575 28.233 174.575 27.3693C174.575 26.642 174.702 26.0284 174.958 25.5284C175.214 25.0284 175.566 24.6222 176.015 24.3097C176.464 23.9972 176.981 23.7614 177.566 23.6023C178.151 23.4375 178.776 23.3267 179.441 23.2699C180.185 23.2017 180.785 23.1307 181.239 23.0568C181.694 22.9773 182.023 22.8665 182.228 22.7244C182.438 22.5767 182.543 22.3693 182.543 22.1023V22.0597C182.543 21.6222 182.393 21.2841 182.092 21.0455C181.79 20.8068 181.384 20.6875 180.873 20.6875C180.322 20.6875 179.878 20.8068 179.543 21.0455C179.208 21.2841 178.995 21.6136 178.904 22.0341L175.06 21.8977C175.174 21.1023 175.467 20.392 175.938 19.767C176.415 19.1364 177.069 18.642 177.898 18.2841C178.734 17.9205 179.736 17.7386 180.907 17.7386C181.742 17.7386 182.512 17.8381 183.217 18.0369C183.921 18.2301 184.535 18.5142 185.057 18.8892C185.58 19.2585 185.984 19.7131 186.268 20.2528C186.557 20.7926 186.702 21.4091 186.702 22.1023V31H182.782V29.1761H182.68C182.447 29.6193 182.148 29.9943 181.785 30.3011C181.427 30.608 181.003 30.8381 180.515 30.9915C180.032 31.1449 179.486 31.2216 178.878 31.2216ZM180.165 28.4943C180.614 28.4943 181.018 28.4034 181.376 28.2216C181.739 28.0398 182.029 27.7898 182.245 27.4716C182.461 27.1477 182.569 26.7727 182.569 26.3466V25.1023C182.45 25.1648 182.305 25.2216 182.134 25.2727C181.969 25.3239 181.788 25.3722 181.589 25.4176C181.39 25.4631 181.185 25.5028 180.975 25.5369C180.765 25.571 180.563 25.6023 180.37 25.6307C179.978 25.6932 179.643 25.7898 179.364 25.9205C179.092 26.0511 178.881 26.2216 178.734 26.4318C178.592 26.6364 178.521 26.8807 178.521 27.1648C178.521 27.5966 178.674 27.9261 178.981 28.1534C179.293 28.3807 179.688 28.4943 180.165 28.4943ZM201.796 17.9091V20.9773H193.538V17.9091H201.796ZM195.268 14.7727H199.435V26.8835C199.435 27.1392 199.475 27.3466 199.555 27.5057C199.64 27.6591 199.762 27.7699 199.921 27.8381C200.08 27.9006 200.271 27.9318 200.492 27.9318C200.651 27.9318 200.819 27.9176 200.995 27.8892C201.177 27.8551 201.313 27.8267 201.404 27.804L202.035 30.8125C201.836 30.8693 201.555 30.9403 201.191 31.0256C200.833 31.1108 200.404 31.1648 199.904 31.1875C198.927 31.233 198.089 31.1193 197.39 30.8466C196.697 30.5682 196.165 30.1364 195.796 29.5511C195.432 28.9659 195.256 28.2301 195.268 27.3438V14.7727ZM209.893 31.2472C208.518 31.2472 207.336 30.9659 206.347 30.4034C205.364 29.8352 204.606 29.0455 204.072 28.0341C203.543 27.017 203.279 25.8381 203.279 24.4972C203.279 23.1506 203.543 21.9716 204.072 20.9602C204.606 19.9432 205.364 19.1534 206.347 18.5909C207.336 18.0227 208.518 17.7386 209.893 17.7386C211.268 17.7386 212.447 18.0227 213.43 18.5909C214.418 19.1534 215.177 19.9432 215.705 20.9602C216.239 21.9716 216.506 23.1506 216.506 24.4972C216.506 25.8381 216.239 27.017 215.705 28.0341C215.177 29.0455 214.418 29.8352 213.43 30.4034C212.447 30.9659 211.268 31.2472 209.893 31.2472ZM209.918 28.1023C210.418 28.1023 210.842 27.9489 211.188 27.642C211.535 27.3352 211.799 26.9091 211.981 26.3636C212.168 25.8182 212.262 25.1875 212.262 24.4716C212.262 23.7443 212.168 23.108 211.981 22.5625C211.799 22.017 211.535 21.5909 211.188 21.2841C210.842 20.9773 210.418 20.8239 209.918 20.8239C209.401 20.8239 208.964 20.9773 208.606 21.2841C208.253 21.5909 207.984 22.017 207.796 22.5625C207.614 23.108 207.523 23.7443 207.523 24.4716C207.523 25.1875 207.614 25.8182 207.796 26.3636C207.984 26.9091 208.253 27.3352 208.606 27.642C208.964 27.9489 209.401 28.1023 209.918 28.1023ZM227.019 22.3324V25.5455H218.94V22.3324H227.019ZM234.743 31.1875C233.777 31.1875 232.899 30.9375 232.109 30.4375C231.32 29.9375 230.689 29.1875 230.217 28.1875C229.746 27.1875 229.51 25.946 229.51 24.4631C229.51 22.9233 229.754 21.6562 230.243 20.6619C230.731 19.6676 231.371 18.9318 232.16 18.4545C232.956 17.9773 233.811 17.7386 234.726 17.7386C235.413 17.7386 236.001 17.858 236.49 18.0966C236.979 18.3295 237.382 18.6307 237.7 19C238.018 19.3693 238.26 19.7528 238.425 20.1506H238.51V13.5455H242.677V31H238.552V28.8778H238.425C238.249 29.2812 237.999 29.6591 237.675 30.0114C237.351 30.3636 236.945 30.6477 236.456 30.8636C235.973 31.0795 235.402 31.1875 234.743 31.1875ZM236.192 27.9403C236.697 27.9403 237.129 27.7983 237.487 27.5142C237.845 27.2244 238.121 26.8182 238.314 26.2955C238.507 25.7727 238.604 25.1591 238.604 24.4545C238.604 23.7386 238.507 23.1222 238.314 22.6051C238.126 22.0881 237.851 21.6903 237.487 21.4119C237.129 21.1335 236.697 20.9943 236.192 20.9943C235.675 20.9943 235.237 21.1364 234.879 21.4205C234.521 21.7045 234.249 22.1051 234.061 22.6222C233.879 23.1392 233.788 23.75 233.788 24.4545C233.788 25.1591 233.882 25.7727 234.07 26.2955C234.257 26.8182 234.527 27.2244 234.879 27.5142C235.237 27.7983 235.675 27.9403 236.192 27.9403ZM251.424 31.2472C250.049 31.2472 248.867 30.9659 247.878 30.4034C246.896 29.8352 246.137 29.0455 245.603 28.0341C245.075 27.017 244.81 25.8381 244.81 24.4972C244.81 23.1506 245.075 21.9716 245.603 20.9602C246.137 19.9432 246.896 19.1534 247.878 18.5909C248.867 18.0227 250.049 17.7386 251.424 17.7386C252.799 17.7386 253.978 18.0227 254.961 18.5909C255.95 19.1534 256.708 19.9432 257.236 20.9602C257.771 21.9716 258.038 23.1506 258.038 24.4972C258.038 25.8381 257.771 27.017 257.236 28.0341C256.708 29.0455 255.95 29.8352 254.961 30.4034C253.978 30.9659 252.799 31.2472 251.424 31.2472ZM251.45 28.1023C251.95 28.1023 252.373 27.9489 252.719 27.642C253.066 27.3352 253.33 26.9091 253.512 26.3636C253.7 25.8182 253.793 25.1875 253.793 24.4716C253.793 23.7443 253.7 23.108 253.512 22.5625C253.33 22.017 253.066 21.5909 252.719 21.2841C252.373 20.9773 251.95 20.8239 251.45 20.8239C250.932 20.8239 250.495 20.9773 250.137 21.2841C249.785 21.5909 249.515 22.017 249.327 22.5625C249.146 23.108 249.055 23.7443 249.055 24.4716C249.055 25.1875 249.146 25.8182 249.327 26.3636C249.515 26.9091 249.785 27.3352 250.137 27.642C250.495 27.9489 250.932 28.1023 251.45 28.1023ZM269.496 13.5455V31H265.329V13.5455H269.496ZM272.149 31V17.9091H276.317V31H272.149ZM274.237 16.3835C273.652 16.3835 273.149 16.1903 272.729 15.804C272.308 15.4119 272.098 14.9403 272.098 14.3892C272.098 13.8437 272.308 13.3778 272.729 12.9915C273.149 12.5994 273.652 12.4034 274.237 12.4034C274.828 12.4034 275.331 12.5994 275.746 12.9915C276.166 13.3778 276.376 13.8437 276.376 14.3892C276.376 14.9403 276.166 15.4119 275.746 15.804C275.331 16.1903 274.828 16.3835 274.237 16.3835ZM290.398 21.9062L286.572 22.0085C286.532 21.7358 286.424 21.4943 286.248 21.2841C286.072 21.0682 285.842 20.9006 285.557 20.7812C285.279 20.6562 284.955 20.5938 284.586 20.5938C284.103 20.5938 283.691 20.6903 283.35 20.8835C283.015 21.0767 282.85 21.3381 282.856 21.6676C282.85 21.9233 282.952 22.1449 283.163 22.3324C283.378 22.5199 283.762 22.6705 284.313 22.7841L286.836 23.2614C288.143 23.5114 289.114 23.9261 289.751 24.5057C290.393 25.0852 290.717 25.8523 290.722 26.8068C290.717 27.7045 290.45 28.4858 289.921 29.1506C289.398 29.8153 288.682 30.3324 287.773 30.7017C286.864 31.0653 285.825 31.2472 284.654 31.2472C282.785 31.2472 281.31 30.8636 280.231 30.0966C279.157 29.3239 278.543 28.2898 278.39 26.9943L282.506 26.892C282.597 27.3693 282.833 27.733 283.214 27.983C283.594 28.233 284.08 28.358 284.671 28.358C285.205 28.358 285.64 28.2585 285.975 28.0597C286.31 27.8608 286.481 27.5966 286.486 27.267C286.481 26.9716 286.35 26.7358 286.094 26.5597C285.839 26.3778 285.438 26.2358 284.893 26.1335L282.609 25.6989C281.296 25.4602 280.319 25.0199 279.677 24.3778C279.035 23.7301 278.717 22.9062 278.722 21.9062C278.717 21.0312 278.95 20.2841 279.421 19.6648C279.893 19.0398 280.563 18.5625 281.432 18.233C282.302 17.9034 283.327 17.7386 284.509 17.7386C286.282 17.7386 287.68 18.1108 288.702 18.8551C289.725 19.5937 290.29 20.6108 290.398 21.9062ZM300.163 17.9091V20.9773H291.905V17.9091H300.163ZM293.635 14.7727H297.802V26.8835C297.802 27.1392 297.842 27.3466 297.922 27.5057C298.007 27.6591 298.129 27.7699 298.288 27.8381C298.447 27.9006 298.638 27.9318 298.859 27.9318C299.018 27.9318 299.186 27.9176 299.362 27.8892C299.544 27.8551 299.68 27.8267 299.771 27.804L300.402 30.8125C300.203 30.8693 299.922 30.9403 299.558 31.0256C299.2 31.1108 298.771 31.1648 298.271 31.1875C297.294 31.233 296.456 31.1193 295.757 30.8466C295.064 30.5682 294.533 30.1364 294.163 29.5511C293.8 28.9659 293.624 28.2301 293.635 27.3438V14.7727Z" fill="white"/>
</svg>
