<svg width="430" height="46" viewBox="0 0 430 46" fill="none" xmlns="http://www.w3.org/2000/svg">
<path d="M3.99994 0.5L426 0.5C427.933 0.5 429.5 2.067 429.5 4V42C429.5 43.933 427.933 45.5 426 45.5H3.99994C2.06694 45.5 0.499939 43.933 0.499939 42L0.499939 4C0.499939 2.067 2.06694 0.5 3.99994 0.5Z" stroke="#74A6B1"/>
<path d="M132.162 15.8125V13.5455H145.671V15.8125H140.225V31H137.6V15.8125H132.162ZM147.092 31V17.9091H149.555V19.9886H149.691C149.93 19.2841 150.35 18.7301 150.953 18.3267C151.561 17.9176 152.248 17.7131 153.015 17.7131C153.174 17.7131 153.362 17.7187 153.578 17.7301C153.799 17.7415 153.973 17.7557 154.098 17.7727V20.2102C153.995 20.1818 153.814 20.1506 153.552 20.1165C153.291 20.0767 153.029 20.0568 152.768 20.0568C152.166 20.0568 151.629 20.1847 151.157 20.4403C150.691 20.6903 150.322 21.0398 150.049 21.4886C149.777 21.9318 149.64 22.4375 149.64 23.0057V31H147.092ZM158.312 35.9091C157.931 35.9091 157.585 35.8778 157.272 35.8153C156.96 35.7585 156.727 35.696 156.574 35.6278L157.187 33.5398C157.653 33.6648 158.068 33.7188 158.431 33.7017C158.795 33.6847 159.116 33.5483 159.395 33.2926C159.679 33.0369 159.929 32.6193 160.145 32.0398L160.46 31.1705L155.67 17.9091H158.397L161.713 28.0682H161.849L165.164 17.9091H167.9L162.505 32.7472C162.255 33.429 161.937 34.0057 161.551 34.4773C161.164 34.9545 160.704 35.3125 160.17 35.5511C159.636 35.7898 159.017 35.9091 158.312 35.9091ZM180.456 31.2898C179.627 31.2898 178.877 31.1364 178.206 30.8295C177.536 30.517 177.005 30.0653 176.613 29.4744C176.226 28.8835 176.033 28.1591 176.033 27.3011C176.033 26.5625 176.175 25.9545 176.459 25.4773C176.743 25 177.127 24.6222 177.61 24.3438C178.093 24.0653 178.632 23.8551 179.229 23.7131C179.826 23.571 180.434 23.4631 181.053 23.3892C181.837 23.2983 182.473 23.2244 182.962 23.1676C183.451 23.1051 183.806 23.0057 184.027 22.8693C184.249 22.733 184.36 22.5114 184.36 22.2045V22.1449C184.36 21.4006 184.15 20.8239 183.729 20.4148C183.314 20.0057 182.695 19.8011 181.871 19.8011C181.013 19.8011 180.337 19.9915 179.843 20.3722C179.354 20.7472 179.016 21.1648 178.828 21.625L176.434 21.0795C176.718 20.2841 177.132 19.642 177.678 19.1534C178.229 18.6591 178.863 18.3011 179.578 18.0795C180.294 17.8523 181.047 17.7386 181.837 17.7386C182.36 17.7386 182.914 17.8011 183.499 17.9261C184.09 18.0455 184.641 18.267 185.152 18.5909C185.669 18.9148 186.093 19.3778 186.422 19.9801C186.752 20.5767 186.917 21.3523 186.917 22.3068V31H184.428V29.2102H184.326C184.161 29.5398 183.914 29.8636 183.584 30.1818C183.255 30.5 182.831 30.7642 182.314 30.9744C181.797 31.1847 181.178 31.2898 180.456 31.2898ZM181.01 29.2443C181.715 29.2443 182.317 29.1051 182.817 28.8267C183.323 28.5483 183.706 28.1847 183.968 27.7358C184.235 27.2812 184.368 26.7955 184.368 26.2784V24.5909C184.277 24.6818 184.101 24.767 183.84 24.8466C183.584 24.9205 183.292 24.9858 182.962 25.0426C182.632 25.0937 182.311 25.142 181.999 25.1875C181.686 25.2273 181.425 25.2614 181.215 25.2898C180.721 25.3523 180.269 25.4574 179.86 25.6051C179.456 25.7528 179.132 25.9659 178.888 26.2443C178.65 26.517 178.53 26.8807 178.53 27.3352C178.53 27.9659 178.763 28.4432 179.229 28.767C179.695 29.0852 180.289 29.2443 181.01 29.2443ZM202.773 17.9091V19.9545H195.623V17.9091H202.773ZM197.54 14.7727H200.088V27.1562C200.088 27.6506 200.162 28.0227 200.31 28.2727C200.458 28.517 200.648 28.6847 200.881 28.7756C201.12 28.8608 201.378 28.9034 201.657 28.9034C201.861 28.9034 202.04 28.8892 202.194 28.8608C202.347 28.8324 202.466 28.8097 202.551 28.7926L203.012 30.8977C202.864 30.9545 202.654 31.0114 202.381 31.0682C202.108 31.1307 201.767 31.1648 201.358 31.1705C200.688 31.1818 200.063 31.0625 199.483 30.8125C198.904 30.5625 198.435 30.1761 198.077 29.6534C197.719 29.1307 197.54 28.4744 197.54 27.6847V14.7727ZM210.966 31.2642C209.738 31.2642 208.667 30.983 207.752 30.4205C206.838 29.858 206.127 29.071 205.622 28.0597C205.116 27.0483 204.863 25.8665 204.863 24.5142C204.863 23.1562 205.116 21.9687 205.622 20.9517C206.127 19.9347 206.838 19.1449 207.752 18.5824C208.667 18.0199 209.738 17.7386 210.966 17.7386C212.193 17.7386 213.264 18.0199 214.179 18.5824C215.093 19.1449 215.804 19.9347 216.309 20.9517C216.815 21.9687 217.068 23.1562 217.068 24.5142C217.068 25.8665 216.815 27.0483 216.309 28.0597C215.804 29.071 215.093 29.858 214.179 30.4205C213.264 30.983 212.193 31.2642 210.966 31.2642ZM210.974 29.125C211.77 29.125 212.429 28.9148 212.951 28.4943C213.474 28.0739 213.86 27.5142 214.11 26.8153C214.366 26.1165 214.494 25.3466 214.494 24.5057C214.494 23.6705 214.366 22.9034 214.11 22.2045C213.86 21.5 213.474 20.9347 212.951 20.5085C212.429 20.0824 211.77 19.8693 210.974 19.8693C210.173 19.8693 209.508 20.0824 208.98 20.5085C208.457 20.9347 208.068 21.5 207.812 22.2045C207.562 22.9034 207.437 23.6705 207.437 24.5057C207.437 25.3466 207.562 26.1165 207.812 26.8153C208.068 27.5142 208.457 28.0739 208.98 28.4943C209.508 28.9148 210.173 29.125 210.974 29.125ZM227.625 22.5199V24.7273H219.887V22.5199H227.625ZM235.922 31.2557C234.865 31.2557 233.922 30.9858 233.093 30.446C232.269 29.9006 231.621 29.125 231.15 28.1193C230.684 27.108 230.451 25.8949 230.451 24.4801C230.451 23.0653 230.686 21.8551 231.158 20.8494C231.635 19.8437 232.289 19.0739 233.118 18.5398C233.948 18.0057 234.888 17.7386 235.939 17.7386C236.752 17.7386 237.405 17.875 237.9 18.1477C238.4 18.4148 238.786 18.7273 239.059 19.0852C239.337 19.4432 239.553 19.7585 239.706 20.0312H239.86V13.5455H242.408V31H239.919V28.9631H239.706C239.553 29.2415 239.331 29.5597 239.042 29.9176C238.757 30.2756 238.365 30.5881 237.865 30.8551C237.365 31.1222 236.718 31.2557 235.922 31.2557ZM236.485 29.0824C237.218 29.0824 237.837 28.8892 238.343 28.5028C238.854 28.1108 239.24 27.5682 239.502 26.875C239.769 26.1818 239.902 25.375 239.902 24.4545C239.902 23.5455 239.772 22.75 239.51 22.0682C239.249 21.3864 238.865 20.8551 238.36 20.4744C237.854 20.0937 237.229 19.9034 236.485 19.9034C235.718 19.9034 235.078 20.1023 234.567 20.5C234.056 20.8977 233.669 21.4403 233.408 22.1278C233.152 22.8153 233.025 23.5909 233.025 24.4545C233.025 25.3295 233.155 26.1165 233.417 26.8153C233.678 27.5142 234.064 28.0682 234.576 28.4773C235.093 28.8807 235.729 29.0824 236.485 29.0824ZM251.559 31.2642C250.332 31.2642 249.261 30.983 248.346 30.4205C247.431 29.858 246.721 29.071 246.216 28.0597C245.71 27.0483 245.457 25.8665 245.457 24.5142C245.457 23.1562 245.71 21.9687 246.216 20.9517C246.721 19.9347 247.431 19.1449 248.346 18.5824C249.261 18.0199 250.332 17.7386 251.559 17.7386C252.787 17.7386 253.858 18.0199 254.772 18.5824C255.687 19.1449 256.397 19.9347 256.903 20.9517C257.409 21.9687 257.662 23.1562 257.662 24.5142C257.662 25.8665 257.409 27.0483 256.903 28.0597C256.397 29.071 255.687 29.858 254.772 30.4205C253.858 30.983 252.787 31.2642 251.559 31.2642ZM251.568 29.125C252.363 29.125 253.022 28.9148 253.545 28.4943C254.068 28.0739 254.454 27.5142 254.704 26.8153C254.96 26.1165 255.088 25.3466 255.088 24.5057C255.088 23.6705 254.96 22.9034 254.704 22.2045C254.454 21.5 254.068 20.9347 253.545 20.5085C253.022 20.0824 252.363 19.8693 251.568 19.8693C250.767 19.8693 250.102 20.0824 249.574 20.5085C249.051 20.9347 248.662 21.5 248.406 22.2045C248.156 22.9034 248.031 23.6705 248.031 24.5057C248.031 25.3466 248.156 26.1165 248.406 26.8153C248.662 27.5142 249.051 28.0739 249.574 28.4943C250.102 28.9148 250.767 29.125 251.568 29.125ZM269.406 13.5455V31H266.858V13.5455H269.406ZM272.834 31V17.9091H275.382V31H272.834ZM274.121 15.8892C273.678 15.8892 273.297 15.7415 272.979 15.446C272.667 15.1449 272.51 14.7869 272.51 14.3722C272.51 13.9517 272.667 13.5937 272.979 13.2983C273.297 12.9972 273.678 12.8466 274.121 12.8466C274.564 12.8466 274.942 12.9972 275.255 13.2983C275.573 13.5937 275.732 13.9517 275.732 14.3722C275.732 14.7869 275.573 15.1449 275.255 15.446C274.942 15.7415 274.564 15.8892 274.121 15.8892ZM288.62 21.1051L286.311 21.5142C286.214 21.2187 286.061 20.9375 285.85 20.6705C285.646 20.4034 285.368 20.1847 285.015 20.0142C284.663 19.8437 284.223 19.7585 283.694 19.7585C282.973 19.7585 282.37 19.9205 281.887 20.2443C281.404 20.5625 281.163 20.9744 281.163 21.4801C281.163 21.9176 281.325 22.2699 281.649 22.5369C281.973 22.804 282.495 23.0227 283.217 23.1932L285.297 23.6705C286.501 23.9489 287.399 24.3778 287.99 24.9574C288.581 25.5369 288.876 26.2898 288.876 27.2159C288.876 28 288.649 28.6989 288.194 29.3125C287.745 29.9205 287.118 30.3977 286.311 30.7443C285.51 31.0909 284.581 31.2642 283.524 31.2642C282.058 31.2642 280.862 30.9517 279.936 30.3267C279.01 29.696 278.441 28.8011 278.231 27.642L280.694 27.267C280.848 27.9091 281.163 28.3949 281.64 28.7244C282.118 29.0483 282.74 29.2102 283.507 29.2102C284.342 29.2102 285.01 29.0369 285.51 28.6903C286.01 28.3381 286.26 27.9091 286.26 27.4034C286.26 26.9943 286.106 26.6506 285.799 26.3722C285.498 26.0937 285.035 25.8835 284.41 25.7415L282.194 25.2557C280.973 24.9773 280.069 24.5341 279.484 23.9261C278.904 23.3182 278.615 22.5483 278.615 21.6165C278.615 20.8437 278.831 20.1676 279.262 19.5881C279.694 19.0085 280.291 18.5568 281.052 18.233C281.814 17.9034 282.686 17.7386 283.669 17.7386C285.083 17.7386 286.197 18.0455 287.01 18.6591C287.822 19.267 288.359 20.0824 288.62 21.1051ZM297.789 17.9091V19.9545H290.638V17.9091H297.789ZM292.556 14.7727H295.104V27.1562C295.104 27.6506 295.178 28.0227 295.326 28.2727C295.473 28.517 295.664 28.6847 295.897 28.7756C296.135 28.8608 296.394 28.9034 296.672 28.9034C296.877 28.9034 297.056 28.8892 297.209 28.8608C297.363 28.8324 297.482 28.8097 297.567 28.7926L298.027 30.8977C297.88 30.9545 297.669 31.0114 297.397 31.0682C297.124 31.1307 296.783 31.1648 296.374 31.1705C295.703 31.1818 295.078 31.0625 294.499 30.8125C293.919 30.5625 293.451 30.1761 293.093 29.6534C292.735 29.1307 292.556 28.4744 292.556 27.6847V14.7727Z" fill="#74A6B1"/>
</svg>
